<?xml version="1.0" encoding="UTF-8" standalone="no"?>
<!-- Created with Inkscape (http://www.inkscape.org/) -->

<svg
   width="456"
   height="456"
   viewBox="0 0 456 456"
   version="1.1"
   id="svg5"
   xml:space="preserve"
   sodipodi:docname="agroserviciosicon.svg"
   inkscape:export-filename="agroserviciosicon.svg"
   inkscape:export-xdpi="85.5"
   inkscape:export-ydpi="85.5"
   inkscape:version="1.2.2 (732a01da63, 2022-12-09)"
   xmlns:inkscape="http://www.inkscape.org/namespaces/inkscape"
   xmlns:sodipodi="http://sodipodi.sourceforge.net/DTD/sodipodi-0.dtd"
   xmlns:xlink="http://www.w3.org/1999/xlink"
   xmlns="http://www.w3.org/2000/svg"
   xmlns:svg="http://www.w3.org/2000/svg"><sodipodi:namedview
     id="namedview224"
     pagecolor="#ffffff"
     bordercolor="#000000"
     borderopacity="0.25"
     inkscape:showpageshadow="false"
     inkscape:pageopacity="0.0"
     inkscape:pagecheckerboard="0"
     inkscape:deskcolor="#d1d1d1"
     showgrid="false"
     inkscape:zoom="0.32593203"
     inkscape:cx="-128.86122"
     inkscape:cy="87.441544"
     inkscape:window-width="1366"
     inkscape:window-height="697"
     inkscape:window-x="-8"
     inkscape:window-y="-8"
     inkscape:window-maximized="1"
     inkscape:current-layer="svg5" /><defs
     id="defs2"><linearGradient
       id="linearGradient31318"><stop
         style="stop-color:#ff3a00;stop-opacity:0.98989898;"
         offset="0"
         id="stop31316" /><stop
         style="stop-color:#dd3200;stop-opacity:1;"
         offset="1"
         id="stop31314" /></linearGradient><linearGradient
       id="Primario"><stop
         style="stop-color:#49b899;stop-opacity:1;"
         offset="0"
         id="stop1287" /></linearGradient><linearGradient
       id="linearGradient20826"><stop
         style="stop-color:#ffffff;stop-opacity:1;"
         offset="0"
         id="stop20822" /><stop
         style="stop-color:#3fae8f;stop-opacity:1;"
         offset="0.10029069"
         id="stop20901" /><stop
         style="stop-color:#3fae8f;stop-opacity:1;"
         offset="0.57049417"
         id="stop20903" /><stop
         style="stop-color:#7fc9b4;stop-opacity:1;"
         offset="0.78670055"
         id="stop20905" /><stop
         style="stop-color:#3fae8f;stop-opacity:1;"
         offset="0.88898981"
         id="stop20907" /><stop
         style="stop-color:#00936a;stop-opacity:1;"
         offset="1"
         id="stop20824" /></linearGradient><linearGradient
       id="linearGradient4070"><stop
         style="stop-color:#49b899;stop-opacity:1;"
         offset="0"
         id="stop4066" /><stop
         style="stop-color:#00936a;stop-opacity:1;"
         offset="1"
         id="stop4068" /></linearGradient><filter
       style="color-interpolation-filters:sRGB"
       id="filter4144-2"
       x="-0.0040338137"
       y="-0.0040338137"
       width="1.0080676"
       height="1.0080676"><feGaussianBlur
         stdDeviation="0.38250001"
         id="feGaussianBlur4146-1" /></filter><radialGradient
       xlink:href="#linearGradient20826"
       id="radialGradient1382"
       gradientUnits="userSpaceOnUse"
       gradientTransform="matrix(1.7987317,-3.8835962e-4,3.5441123e-4,1.8945388,-701.62013,-351.25041)"
       cx="424.3121"
       cy="238.08"
       fx="424.3121"
       fy="238.08"
       r="227"
       spreadMethod="pad" /><radialGradient
       xlink:href="#linearGradient4070"
       id="radialGradient1384"
       gradientUnits="userSpaceOnUse"
       gradientTransform="matrix(0.99123162,-0.9912315,0.99123146,0.99123152,3.1744909,358.86413)"
       cx="362.03867"
       cy="-4.2632564e-13"
       fx="362.03867"
       fy="-4.2632564e-13"
       r="142.5555" /><radialGradient
       xlink:href="#linearGradient4070"
       id="radialGradient1386"
       gradientUnits="userSpaceOnUse"
       gradientTransform="matrix(1.2499813,0,0,1.2499812,-90.502911,0)"
       cx="362.03867"
       cy="1.2505741e-13"
       fx="362.03867"
       fy="1.2505741e-13"
       r="113.0461" /><clipPath
       clipPathUnits="userSpaceOnUse"
       id="clipPath30237"><path
         d="m 234.623,171.888 c 0,0 16.251,29.645 60.033,37.476 v 0 c 0,0 -8.758,1.431 -19.721,1.432 v 0 c -21.677,0 -51.984,-5.594 -40.312,-38.908"
         id="path30235" /></clipPath><clipPath
       clipPathUnits="userSpaceOnUse"
       id="clipPath30257"><path
         d="m 234.623,171.888 c 45.356,-20.891 29.349,34.354 59.678,37.484 v 0 c -0.427,0.01 -0.847,0.015 -1.27,0.015 v 0 c -37.433,-0.003 -58.408,-37.499 -58.408,-37.499"
         id="path30255" /></clipPath><clipPath
       clipPathUnits="userSpaceOnUse"
       id="clipPath30285"><path
         d="m 248.296,190.801 c 0.223,3.626 -1.654,10.089 2.956,12.273 v 0 c -5.161,-2.152 -2.974,-9.347 -3.569,-12.844 v 0 c -2.983,-2.784 -5.417,-5.532 -7.352,-7.988 v 0 c 0.779,4.593 -2.535,14.277 4.065,17.409 v 0 c -8.656,-3.614 -2.715,-16.683 -5.768,-19.666 v 0 c -2.325,-3.221 -3.653,-5.674 -4.144,-6.636 v 0 c -1.128,-1.748 -2.308,-3.971 -3.595,-6.954 v 0 c 1.213,0.014 0.535,-0.425 1.399,-1.934 v 0 c 0,0 1.124,3.519 3.018,7.097 v 0 l 0.238,-0.115 c 0,0 0.885,1.934 2.798,4.932 v 0 c 1.944,0.603 4.909,0.225 8.175,-0.153 v 0 c 6.348,-0.735 13.834,-1.47 17.178,5.007 v 0 c -3.464,-5.998 -10.73,-5.098 -16.946,-4.198 v 0 c -2.931,0.424 -5.627,0.848 -7.582,0.551 v 0 c 1.254,1.667 1.138,1.49 2.056,2.956 v 0 c 1.691,2.267 3.785,4.799 6.312,7.403 v 0 c 5.002,2.002 17.343,-0.856 22.507,4.747 v 0 c -3.356,-3.165 -9.273,-3.155 -14.464,-3.145 v 0 c -2.595,0.004 -5.008,0.01 -6.828,-0.382 v 0 c 2.272,2.235 6.299,6.674 13.326,10.852 v 0 c 4.232,1.88 10.29,3.168 13.903,2.429 v 0 c -2.549,0.981 -7.682,0.147 -11.842,-1.367 v 0 c 7.469,4.152 16.98,7.398 27.887,8.735 v 0 c -20.449,-2.072 -34.565,-10.645 -43.728,-19.009"
         id="path30283" /></clipPath><clipPath
       clipPathUnits="userSpaceOnUse"
       id="clipPath30309"><path
         d="m 260.119,177.725 c 1.408,0.749 2.633,1.871 3.576,3.504 v 0 c -1.005,-1.588 -2.222,-2.718 -3.576,-3.504 m -13.37,-0.694 c -2.598,0.376 -5.011,0.751 -6.887,0.625 v 0 c 1.616,0.083 3.819,-0.338 6.27,-0.76 v 0 c 4.518,-0.777 9.882,-1.554 13.987,0.829 v 0 c -3.766,-2.004 -8.846,-1.349 -13.37,-0.694 m -7.582,0.551 c 0.222,0.033 0.454,0.058 0.695,0.074 v 0 c -0.245,-0.012 -0.478,-0.037 -0.695,-0.074"
         id="path30307" /></clipPath><clipPath
       clipPathUnits="userSpaceOnUse"
       id="clipPath30329"><path
         d="m 240.238,181.843 c 1.817,6.046 -2.645,13.632 4.158,17.808 v 0 c -6.641,-3.979 -3.226,-9.117 -4.158,-17.808"
         id="path30327" /></clipPath><clipPath
       clipPathUnits="userSpaceOnUse"
       id="clipPath30349"><path
         d="m 247.95,190.545 0.346,0.256 c 1.139,4.66 -2.142,8.021 2.607,12.018 v 0 c -5.072,-2.934 -1.678,-9.389 -2.953,-12.274"
         id="path30347" /></clipPath><clipPath
       clipPathUnits="userSpaceOnUse"
       id="clipPath30369"><path
         d="m 249.909,189.293 c 1.35,0.104 2.956,0.1 4.681,0.096 v 0 c 5.404,-0.015 11.967,-0.029 15.452,3.299 v 0 c -4.303,-3.951 -13.897,-2.831 -20.133,-3.395 m -1.369,-0.162 c 0.434,0.066 0.892,0.119 1.369,0.162 v 0 c -0.493,-0.037 -0.951,-0.09 -1.369,-0.162"
         id="path30367" /></clipPath><clipPath
       clipPathUnits="userSpaceOnUse"
       id="clipPath30389"><path
         d="m 252.461,169.245 c 18.866,1.607 14.204,24.475 30.937,36.607 v 0 C 266.07,194.481 272.144,173.119 252.461,169.245"
         id="path30387" /></clipPath><clipPath
       clipPathUnits="userSpaceOnUse"
       id="clipPath30411"><path
         d="m 235.215,174.497 c 0,0 -5.869,11.804 3.169,24.982 v 0 c -10.433,-11.837 -3.169,-24.982 -3.169,-24.982"
         id="path30409" /></clipPath><clipPath
       clipPathUnits="userSpaceOnUse"
       id="clipPath30433"><path
         d="M 93,72 H 766 V 550 H 93 Z"
         id="path30431" /></clipPath><clipPath
       clipPathUnits="userSpaceOnUse"
       id="clipPath30445"><path
         d="m 245.363,183.084 c -0.826,-1.037 -0.654,-2.549 0.386,-3.379 v 0 c 1.039,-0.829 2.553,-0.657 3.38,0.383 v 0 c 0.827,1.041 0.656,2.553 -0.387,3.381 v 0 c -0.442,0.352 -0.97,0.523 -1.495,0.523 v 0 c -0.707,0 -1.409,-0.311 -1.884,-0.908"
         id="path30443" /></clipPath><clipPath
       clipPathUnits="userSpaceOnUse"
       id="clipPath30467"><path
         d="m 247.241,183.307 c -0.092,-0.21 0.096,-0.497 0.421,-0.638 v 0 c 0.323,-0.138 0.66,-0.079 0.75,0.13 v 0 c 0.092,0.213 -0.096,0.499 -0.421,0.636 v 0 c -0.118,0.051 -0.239,0.076 -0.348,0.076 v 0 c -0.188,0 -0.344,-0.072 -0.402,-0.204"
         id="path30465" /></clipPath><clipPath
       clipPathUnits="userSpaceOnUse"
       id="clipPath30487"><path
         d="M 93,72 H 766 V 550 H 93 Z"
         id="path30485" /></clipPath><clipPath
       clipPathUnits="userSpaceOnUse"
       id="clipPath30499"><path
         d="m 259.467,206.24 c -0.543,-0.685 -0.429,-1.681 0.253,-2.224 v 0 c 0.685,-0.544 1.681,-0.43 2.227,0.252 v 0 c 0.543,0.684 0.428,1.68 -0.256,2.227 v 0 c -0.291,0.231 -0.638,0.343 -0.984,0.343 v 0 c -0.465,0 -0.927,-0.204 -1.24,-0.598"
         id="path30497" /></clipPath><clipPath
       clipPathUnits="userSpaceOnUse"
       id="clipPath30521"><path
         d="m 260.703,206.387 c -0.06,-0.14 0.064,-0.328 0.275,-0.42 v 0 c 0.215,-0.091 0.438,-0.054 0.496,0.083 v 0 c 0.059,0.143 -0.065,0.331 -0.276,0.423 v 0 c -0.079,0.033 -0.159,0.048 -0.231,0.048 v 0 c -0.124,0 -0.225,-0.046 -0.264,-0.134"
         id="path30519" /></clipPath><radialGradient
       xlink:href="#linearGradient31318"
       id="radialGradient31320"
       cx="-312.95374"
       cy="296.00003"
       fx="-312.95374"
       fy="296.00003"
       r="255.99995"
       gradientTransform="matrix(0.89062516,0,0,0.89062516,-34.229265,32.374878)"
       gradientUnits="userSpaceOnUse" /></defs><g
     id="layer1"
     style="display:inline;opacity:1"
     transform="matrix(0.56140349,0,0,0.56140349,403.69332,61.824567)"><ellipse
       style="fill:url(#radialGradient31320);fill-opacity:1;stroke:#ffffff;stroke-width:17.2224;stroke-linecap:round;stroke-linejoin:round;stroke-dasharray:none;stroke-opacity:1;paint-order:markers fill stroke"
       id="path31289"
       cx="-312.95374"
       cy="296"
       rx="219.38881"
       ry="219.38885" /><text
       xml:space="preserve"
       style="font-style:normal;font-variant:normal;font-weight:bold;font-stretch:normal;font-size:200.002px;font-family:'Segoe UI';-inkscape-font-specification:'Segoe UI, Bold';font-variant-ligatures:normal;font-variant-caps:normal;font-variant-numeric:normal;font-variant-east-asian:normal;fill:#ffffff;fill-opacity:1;stroke:#00936a;stroke-width:7.22495;stroke-linecap:round;stroke-linejoin:round;stroke-dasharray:none;stroke-opacity:1;paint-order:markers fill stroke"
       x="-434.53751"
       y="288.64087"
       id="text31382"><tspan
         id="tspan31380"
         x="-434.53751"
         y="288.64087"
         style="font-style:normal;font-variant:normal;font-weight:bold;font-stretch:normal;font-size:200.002px;font-family:'Segoe UI';-inkscape-font-specification:'Segoe UI, Bold';font-variant-ligatures:normal;font-variant-caps:normal;font-variant-numeric:normal;font-variant-east-asian:normal;fill:#ffffff;fill-opacity:1;stroke:#00936a;stroke-width:7.22495;stroke-dasharray:none;stroke-opacity:1;paint-order:markers fill stroke">AS</tspan></text><g
       id="g138229"
       transform="matrix(0,-2.7173032,2.5482462,0,-1839.2569,2466.5074)"
       style="fill:#00936a;fill-opacity:1;stroke:#ffffff;stroke-width:7.44431;stroke-dasharray:none;stroke-opacity:1"><g
         id="g138091"
         transform="matrix(1.3333333,0,0,-1.3333333,428.64995,809.87412)"
         style="fill:#00936a;fill-opacity:1;stroke:#ffffff;stroke-width:5.58323;stroke-dasharray:none;stroke-opacity:1"><g
           id="g138089"
           clip-path="url(#clipPath30237)"
           style="fill:#00936a;fill-opacity:1;stroke:#ffffff;stroke-width:5.58323;stroke-dasharray:none;stroke-opacity:1"><g
             id="g138087"
             style="fill:#00936a;fill-opacity:1;stroke:#ffffff;stroke-width:5.58323;stroke-dasharray:none;stroke-opacity:1"><g
               id="g138085"
               style="fill:#00936a;fill-opacity:1;stroke:#ffffff;stroke-width:5.58323;stroke-dasharray:none;stroke-opacity:1"><path
                 d="m 234.623,171.888 c 0,0 16.251,29.645 60.033,37.476 v 0 c 0,0 -8.758,1.431 -19.721,1.432 v 0 c -21.677,0 -51.984,-5.594 -40.312,-38.908"
                 style="fill:#00936a;fill-opacity:1;stroke:#ffffff;stroke-width:5.58323;stroke-dasharray:none;stroke-opacity:1"
                 id="path138083" /></g></g></g></g><g
         id="g138101"
         transform="matrix(1.3333333,0,0,-1.3333333,428.64995,809.87412)"
         style="fill:#00936a;fill-opacity:1;stroke:#ffffff;stroke-width:5.58323;stroke-dasharray:none;stroke-opacity:1"><g
           id="g138099"
           clip-path="url(#clipPath30257)"
           style="fill:#00936a;fill-opacity:1;stroke:#ffffff;stroke-width:5.58323;stroke-dasharray:none;stroke-opacity:1"><g
             id="g138097"
             style="fill:#00936a;fill-opacity:1;stroke:#ffffff;stroke-width:5.58323;stroke-dasharray:none;stroke-opacity:1"><g
               id="g138095"
               style="fill:#00936a;fill-opacity:1;stroke:#ffffff;stroke-width:5.58323;stroke-dasharray:none;stroke-opacity:1"><path
                 d="m 234.623,171.888 c 45.356,-20.891 29.349,34.354 59.678,37.484 v 0 c -0.427,0.01 -0.847,0.015 -1.27,0.015 v 0 c -37.433,-0.003 -58.408,-37.499 -58.408,-37.499"
                 style="fill:#00936a;fill-opacity:1;stroke:#ffffff;stroke-width:5.58323;stroke-dasharray:none;stroke-opacity:1"
                 id="path138093" /></g></g></g></g><g
         id="g138111"
         transform="matrix(1.3333333,0,0,-1.3333333,428.64995,809.87412)"
         style="fill:#00936a;fill-opacity:1;stroke:#ffffff;stroke-width:5.58323;stroke-dasharray:none;stroke-opacity:1"><g
           id="g138109"
           clip-path="url(#clipPath30285)"
           style="fill:#00936a;fill-opacity:1;stroke:#ffffff;stroke-width:5.58323;stroke-dasharray:none;stroke-opacity:1"><g
             id="g138107"
             style="fill:#00936a;fill-opacity:1;stroke:#ffffff;stroke-width:5.58323;stroke-dasharray:none;stroke-opacity:1"><g
               id="g138105"
               style="fill:#00936a;fill-opacity:1;stroke:#ffffff;stroke-width:5.58323;stroke-dasharray:none;stroke-opacity:1"><path
                 d="m 248.296,190.801 c 0.223,3.626 -1.654,10.089 2.956,12.273 v 0 c -5.161,-2.152 -2.974,-9.347 -3.569,-12.844 v 0 c -2.983,-2.784 -5.417,-5.532 -7.352,-7.988 v 0 c 0.779,4.593 -2.535,14.277 4.065,17.409 v 0 c -8.656,-3.614 -2.715,-16.683 -5.768,-19.666 v 0 c -2.325,-3.221 -3.653,-5.674 -4.144,-6.636 v 0 c -1.128,-1.748 -2.308,-3.971 -3.595,-6.954 v 0 c 1.213,0.014 0.535,-0.425 1.399,-1.934 v 0 c 0,0 1.124,3.519 3.018,7.097 v 0 l 0.238,-0.115 c 0,0 0.885,1.934 2.798,4.932 v 0 c 1.944,0.603 4.909,0.225 8.175,-0.153 v 0 c 6.348,-0.735 13.834,-1.47 17.178,5.007 v 0 c -3.464,-5.998 -10.73,-5.098 -16.946,-4.198 v 0 c -2.931,0.424 -5.627,0.848 -7.582,0.551 v 0 c 1.254,1.667 1.138,1.49 2.056,2.956 v 0 c 1.691,2.267 3.785,4.799 6.312,7.403 v 0 c 5.002,2.002 17.343,-0.856 22.507,4.747 v 0 c -3.356,-3.165 -9.273,-3.155 -14.464,-3.145 v 0 c -2.595,0.004 -5.008,0.01 -6.828,-0.382 v 0 c 2.272,2.235 6.299,6.674 13.326,10.852 v 0 c 4.232,1.88 10.29,3.168 13.903,2.429 v 0 c -2.549,0.981 -7.682,0.147 -11.842,-1.367 v 0 c 7.469,4.152 16.98,7.398 27.887,8.735 v 0 c -20.449,-2.072 -34.565,-10.645 -43.728,-19.009"
                 style="fill:#00936a;fill-opacity:1;stroke:#ffffff;stroke-width:5.58323;stroke-dasharray:none;stroke-opacity:1"
                 id="path138103" /></g></g></g></g><g
         id="g138121"
         transform="matrix(1.3333333,0,0,-1.3333333,428.64995,809.87412)"
         style="fill:#00936a;fill-opacity:1;stroke:#ffffff;stroke-width:5.58323;stroke-dasharray:none;stroke-opacity:1"><g
           id="g138119"
           clip-path="url(#clipPath30309)"
           style="fill:#00936a;fill-opacity:1;stroke:#ffffff;stroke-width:5.58323;stroke-dasharray:none;stroke-opacity:1"><g
             id="g138117"
             style="fill:#00936a;fill-opacity:1;stroke:#ffffff;stroke-width:5.58323;stroke-dasharray:none;stroke-opacity:1"><g
               id="g138115"
               style="fill:#00936a;fill-opacity:1;stroke:#ffffff;stroke-width:5.58323;stroke-dasharray:none;stroke-opacity:1"><path
                 d="m 260.119,177.725 c 1.408,0.749 2.633,1.871 3.576,3.504 v 0 c -1.005,-1.588 -2.222,-2.718 -3.576,-3.504 m -13.37,-0.694 c -2.598,0.376 -5.011,0.751 -6.887,0.625 v 0 c 1.616,0.083 3.819,-0.338 6.27,-0.76 v 0 c 4.518,-0.777 9.882,-1.554 13.987,0.829 v 0 c -3.766,-2.004 -8.846,-1.349 -13.37,-0.694 m -7.582,0.551 c 0.222,0.033 0.454,0.058 0.695,0.074 v 0 c -0.245,-0.012 -0.478,-0.037 -0.695,-0.074"
                 style="fill:#00936a;fill-opacity:1;stroke:#ffffff;stroke-width:5.58323;stroke-dasharray:none;stroke-opacity:1"
                 id="path138113" /></g></g></g></g><g
         id="g138131"
         transform="matrix(1.3333333,0,0,-1.3333333,428.64995,809.87412)"
         style="fill:#00936a;fill-opacity:1;stroke:#ffffff;stroke-width:5.58323;stroke-dasharray:none;stroke-opacity:1"><g
           id="g138129"
           clip-path="url(#clipPath30329)"
           style="fill:#00936a;fill-opacity:1;stroke:#ffffff;stroke-width:5.58323;stroke-dasharray:none;stroke-opacity:1"><g
             id="g138127"
             style="fill:#00936a;fill-opacity:1;stroke:#ffffff;stroke-width:5.58323;stroke-dasharray:none;stroke-opacity:1"><g
               id="g138125"
               style="fill:#00936a;fill-opacity:1;stroke:#ffffff;stroke-width:5.58323;stroke-dasharray:none;stroke-opacity:1"><path
                 d="m 240.238,181.843 c 1.817,6.046 -2.645,13.632 4.158,17.808 v 0 c -6.641,-3.979 -3.226,-9.117 -4.158,-17.808"
                 style="fill:#00936a;fill-opacity:1;stroke:#ffffff;stroke-width:5.58323;stroke-dasharray:none;stroke-opacity:1"
                 id="path138123" /></g></g></g></g><g
         id="g138141"
         transform="matrix(1.3333333,0,0,-1.3333333,428.64995,809.87412)"
         style="fill:#00936a;fill-opacity:1;stroke:#ffffff;stroke-width:5.58323;stroke-dasharray:none;stroke-opacity:1"><g
           id="g138139"
           clip-path="url(#clipPath30349)"
           style="fill:#00936a;fill-opacity:1;stroke:#ffffff;stroke-width:5.58323;stroke-dasharray:none;stroke-opacity:1"><g
             id="g138137"
             style="fill:#00936a;fill-opacity:1;stroke:#ffffff;stroke-width:5.58323;stroke-dasharray:none;stroke-opacity:1"><g
               id="g138135"
               style="fill:#00936a;fill-opacity:1;stroke:#ffffff;stroke-width:5.58323;stroke-dasharray:none;stroke-opacity:1"><path
                 d="m 247.95,190.545 0.346,0.256 c 1.139,4.66 -2.142,8.021 2.607,12.018 v 0 c -5.072,-2.934 -1.678,-9.389 -2.953,-12.274"
                 style="fill:#00936a;fill-opacity:1;stroke:#ffffff;stroke-width:5.58323;stroke-dasharray:none;stroke-opacity:1"
                 id="path138133" /></g></g></g></g><g
         id="g138151"
         transform="matrix(1.3333333,0,0,-1.3333333,428.64995,809.87412)"
         style="fill:#00936a;fill-opacity:1;stroke:#ffffff;stroke-width:5.58323;stroke-dasharray:none;stroke-opacity:1"><g
           id="g138149"
           clip-path="url(#clipPath30369)"
           style="fill:#00936a;fill-opacity:1;stroke:#ffffff;stroke-width:5.58323;stroke-dasharray:none;stroke-opacity:1"><g
             id="g138147"
             style="fill:#00936a;fill-opacity:1;stroke:#ffffff;stroke-width:5.58323;stroke-dasharray:none;stroke-opacity:1"><g
               id="g138145"
               style="fill:#00936a;fill-opacity:1;stroke:#ffffff;stroke-width:5.58323;stroke-dasharray:none;stroke-opacity:1"><path
                 d="m 249.909,189.293 c 1.35,0.104 2.956,0.1 4.681,0.096 v 0 c 5.404,-0.015 11.967,-0.029 15.452,3.299 v 0 c -4.303,-3.951 -13.897,-2.831 -20.133,-3.395 m -1.369,-0.162 c 0.434,0.066 0.892,0.119 1.369,0.162 v 0 c -0.493,-0.037 -0.951,-0.09 -1.369,-0.162"
                 style="fill:#00936a;fill-opacity:1;stroke:#ffffff;stroke-width:5.58323;stroke-dasharray:none;stroke-opacity:1"
                 id="path138143" /></g></g></g></g><g
         id="g138161"
         transform="matrix(1.3333333,0,0,-1.3333333,428.64995,809.87412)"
         style="fill:#00936a;fill-opacity:1;stroke:#ffffff;stroke-width:5.58323;stroke-dasharray:none;stroke-opacity:1"><g
           id="g138159"
           clip-path="url(#clipPath30389)"
           style="fill:#00936a;fill-opacity:1;stroke:#ffffff;stroke-width:5.58323;stroke-dasharray:none;stroke-opacity:1"><g
             id="g138157"
             style="fill:#00936a;fill-opacity:1;stroke:#ffffff;stroke-width:5.58323;stroke-dasharray:none;stroke-opacity:1"><g
               id="g138155"
               style="fill:#00936a;fill-opacity:1;stroke:#ffffff;stroke-width:5.58323;stroke-dasharray:none;stroke-opacity:1"><path
                 d="m 252.461,169.245 c 18.866,1.607 14.204,24.475 30.937,36.607 v 0 C 266.07,194.481 272.144,173.119 252.461,169.245"
                 style="fill:#00936a;fill-opacity:1;stroke:#ffffff;stroke-width:5.58323;stroke-dasharray:none;stroke-opacity:1"
                 id="path138153" /></g></g></g></g><g
         id="g138171"
         transform="matrix(1.3333333,0,0,-1.3333333,428.64995,809.87412)"
         style="fill:#00936a;fill-opacity:1;stroke:#ffffff;stroke-width:5.58323;stroke-dasharray:none;stroke-opacity:1"><g
           id="g138169"
           clip-path="url(#clipPath30411)"
           style="fill:#00936a;fill-opacity:1;stroke:#ffffff;stroke-width:5.58323;stroke-dasharray:none;stroke-opacity:1"><g
             id="g138167"
             style="fill:#00936a;fill-opacity:1;stroke:#ffffff;stroke-width:5.58323;stroke-dasharray:none;stroke-opacity:1"><g
               id="g138165"
               style="fill:#00936a;fill-opacity:1;stroke:#ffffff;stroke-width:5.58323;stroke-dasharray:none;stroke-opacity:1"><path
                 d="m 235.215,174.497 c 0,0 -5.869,11.804 3.169,24.982 v 0 c -10.433,-11.837 -3.169,-24.982 -3.169,-24.982"
                 style="fill:#00936a;fill-opacity:1;stroke:#ffffff;stroke-width:5.58323;stroke-dasharray:none;stroke-opacity:1"
                 id="path138163" /></g></g></g></g><g
         id="g138179"
         transform="matrix(1.3333333,0,0,-1.3333333,428.64995,809.87412)"
         style="fill:#00936a;fill-opacity:1;stroke:#ffffff;stroke-width:5.58323;stroke-dasharray:none;stroke-opacity:1"><g
           id="g138177"
           clip-path="url(#clipPath30433)"
           style="fill:#00936a;fill-opacity:1;stroke:#ffffff;stroke-width:5.58323;stroke-dasharray:none;stroke-opacity:1"><g
             id="g138175"
             transform="translate(245.1475,183.001)"
             style="fill:#00936a;fill-opacity:1;stroke:#ffffff;stroke-width:5.58323;stroke-dasharray:none;stroke-opacity:1"><path
               d="m 0,0 c -0.877,-1.103 -0.693,-2.705 0.407,-3.58 1.1,-0.875 2.703,-0.694 3.577,0.408 0.878,1.1 0.694,2.703 -0.406,3.578 C 2.475,1.279 0.875,1.101 0,0"
               style="fill:#00936a;fill-opacity:1;fill-rule:nonzero;stroke:#ffffff;stroke-width:5.58323;stroke-dasharray:none;stroke-opacity:1"
               id="path138173" /></g></g></g><g
         id="g138189"
         transform="matrix(1.3333333,0,0,-1.3333333,428.64995,809.87412)"
         style="fill:#00936a;fill-opacity:1;stroke:#ffffff;stroke-width:5.58323;stroke-dasharray:none;stroke-opacity:1"><g
           id="g138187"
           clip-path="url(#clipPath30445)"
           style="fill:#00936a;fill-opacity:1;stroke:#ffffff;stroke-width:5.58323;stroke-dasharray:none;stroke-opacity:1"><g
             id="g138185"
             style="fill:#00936a;fill-opacity:1;stroke:#ffffff;stroke-width:5.58323;stroke-dasharray:none;stroke-opacity:1"><g
               id="g138183"
               style="fill:#00936a;fill-opacity:1;stroke:#ffffff;stroke-width:5.58323;stroke-dasharray:none;stroke-opacity:1"><path
                 d="m 245.363,183.084 c -0.826,-1.037 -0.654,-2.549 0.386,-3.379 v 0 c 1.039,-0.829 2.553,-0.657 3.38,0.383 v 0 c 0.827,1.041 0.656,2.553 -0.387,3.381 v 0 c -0.442,0.352 -0.97,0.523 -1.495,0.523 v 0 c -0.707,0 -1.409,-0.311 -1.884,-0.908"
                 style="fill:#00936a;fill-opacity:1;stroke:#ffffff;stroke-width:5.58323;stroke-dasharray:none;stroke-opacity:1"
                 id="path138181" /></g></g></g></g><g
         id="g138199"
         transform="matrix(1.3333333,0,0,-1.3333333,428.64995,809.87412)"
         style="fill:#00936a;fill-opacity:1;stroke:#ffffff;stroke-width:5.58323;stroke-dasharray:none;stroke-opacity:1"><g
           id="g138197"
           clip-path="url(#clipPath30467)"
           style="fill:#00936a;fill-opacity:1;stroke:#ffffff;stroke-width:5.58323;stroke-dasharray:none;stroke-opacity:1"><g
             id="g138195"
             style="fill:#00936a;fill-opacity:1;stroke:#ffffff;stroke-width:5.58323;stroke-dasharray:none;stroke-opacity:1"><g
               id="g138193"
               style="fill:#00936a;fill-opacity:1;stroke:#ffffff;stroke-width:5.58323;stroke-dasharray:none;stroke-opacity:1"><path
                 d="m 247.241,183.307 c -0.092,-0.21 0.096,-0.497 0.421,-0.638 v 0 c 0.323,-0.138 0.66,-0.079 0.75,0.13 v 0 c 0.092,0.213 -0.096,0.499 -0.421,0.636 v 0 c -0.118,0.051 -0.239,0.076 -0.348,0.076 v 0 c -0.188,0 -0.344,-0.072 -0.402,-0.204"
                 style="fill:#00936a;fill-opacity:1;stroke:#ffffff;stroke-width:5.58323;stroke-dasharray:none;stroke-opacity:1"
                 id="path138191" /></g></g></g></g><g
         id="g138207"
         transform="matrix(1.3333333,0,0,-1.3333333,428.64995,809.87412)"
         style="fill:#00936a;fill-opacity:1;stroke:#ffffff;stroke-width:5.58323;stroke-dasharray:none;stroke-opacity:1"><g
           id="g138205"
           clip-path="url(#clipPath30487)"
           style="fill:#00936a;fill-opacity:1;stroke:#ffffff;stroke-width:5.58323;stroke-dasharray:none;stroke-opacity:1"><g
             id="g138203"
             transform="translate(259.3232,206.1836)"
             style="fill:#00936a;fill-opacity:1;stroke:#ffffff;stroke-width:5.58323;stroke-dasharray:none;stroke-opacity:1"><path
               d="M 0,0 C -0.578,-0.725 -0.454,-1.778 0.267,-2.354 0.992,-2.932 2.047,-2.812 2.625,-2.087 3.199,-1.361 3.08,-0.308 2.355,0.27 1.63,0.845 0.577,0.726 0,0"
               style="fill:#00936a;fill-opacity:1;fill-rule:nonzero;stroke:#ffffff;stroke-width:5.58323;stroke-dasharray:none;stroke-opacity:1"
               id="path138201" /></g></g></g><g
         id="g138217"
         transform="matrix(1.3333333,0,0,-1.3333333,428.64995,809.87412)"
         style="fill:#00936a;fill-opacity:1;stroke:#ffffff;stroke-width:5.58323;stroke-dasharray:none;stroke-opacity:1"><g
           id="g138215"
           clip-path="url(#clipPath30499)"
           style="fill:#00936a;fill-opacity:1;stroke:#ffffff;stroke-width:5.58323;stroke-dasharray:none;stroke-opacity:1"><g
             id="g138213"
             style="fill:#00936a;fill-opacity:1;stroke:#ffffff;stroke-width:5.58323;stroke-dasharray:none;stroke-opacity:1"><g
               id="g138211"
               style="fill:#00936a;fill-opacity:1;stroke:#ffffff;stroke-width:5.58323;stroke-dasharray:none;stroke-opacity:1"><path
                 d="m 259.467,206.24 c -0.543,-0.685 -0.429,-1.681 0.253,-2.224 v 0 c 0.685,-0.544 1.681,-0.43 2.227,0.252 v 0 c 0.543,0.684 0.428,1.68 -0.256,2.227 v 0 c -0.291,0.231 -0.638,0.343 -0.984,0.343 v 0 c -0.465,0 -0.927,-0.204 -1.24,-0.598"
                 style="fill:#00936a;fill-opacity:1;stroke:#ffffff;stroke-width:5.58323;stroke-dasharray:none;stroke-opacity:1"
                 id="path138209" /></g></g></g></g><g
         id="g138227"
         transform="matrix(1.3333333,0,0,-1.3333333,428.64995,809.87412)"
         style="fill:#00936a;fill-opacity:1;stroke:#ffffff;stroke-width:5.58323;stroke-dasharray:none;stroke-opacity:1"><g
           id="g138225"
           clip-path="url(#clipPath30521)"
           style="fill:#00936a;fill-opacity:1;stroke:#ffffff;stroke-width:5.58323;stroke-dasharray:none;stroke-opacity:1"><g
             id="g138223"
             style="fill:#00936a;fill-opacity:1;stroke:#ffffff;stroke-width:5.58323;stroke-dasharray:none;stroke-opacity:1"><g
               id="g138221"
               style="fill:#00936a;fill-opacity:1;stroke:#ffffff;stroke-width:5.58323;stroke-dasharray:none;stroke-opacity:1"><path
                 d="m 260.703,206.387 c -0.06,-0.14 0.064,-0.328 0.275,-0.42 v 0 c 0.215,-0.091 0.438,-0.054 0.496,0.083 v 0 c 0.059,0.143 -0.065,0.331 -0.276,0.423 v 0 c -0.079,0.033 -0.159,0.048 -0.231,0.048 v 0 c -0.124,0 -0.225,-0.046 -0.264,-0.134"
                 style="fill:#00936a;fill-opacity:1;stroke:#ffffff;stroke-width:5.58323;stroke-dasharray:none;stroke-opacity:1"
                 id="path138219" /></g></g></g></g></g><g
       id="g803"
       transform="matrix(0,-2.7173032,-2.5482462,0,1216.8641,2466.5074)"
       style="fill:#00936a;fill-opacity:1;stroke:#ffffff;stroke-width:7.44431;stroke-dasharray:none;stroke-opacity:1"><g
         id="g665"
         transform="matrix(1.3333333,0,0,-1.3333333,428.64995,809.87412)"
         style="fill:#00936a;fill-opacity:1;stroke:#ffffff;stroke-width:5.58323;stroke-dasharray:none;stroke-opacity:1"><g
           id="g663"
           clip-path="url(#clipPath30237)"
           style="fill:#00936a;fill-opacity:1;stroke:#ffffff;stroke-width:5.58323;stroke-dasharray:none;stroke-opacity:1"><g
             id="g661"
             style="fill:#00936a;fill-opacity:1;stroke:#ffffff;stroke-width:5.58323;stroke-dasharray:none;stroke-opacity:1"><g
               id="g659"
               style="fill:#00936a;fill-opacity:1;stroke:#ffffff;stroke-width:5.58323;stroke-dasharray:none;stroke-opacity:1"><path
                 d="m 234.623,171.888 c 0,0 16.251,29.645 60.033,37.476 v 0 c 0,0 -8.758,1.431 -19.721,1.432 v 0 c -21.677,0 -51.984,-5.594 -40.312,-38.908"
                 style="fill:#00936a;fill-opacity:1;stroke:#ffffff;stroke-width:5.58323;stroke-dasharray:none;stroke-opacity:1"
                 id="path657" /></g></g></g></g><g
         id="g675"
         transform="matrix(1.3333333,0,0,-1.3333333,428.64995,809.87412)"
         style="fill:#00936a;fill-opacity:1;stroke:#ffffff;stroke-width:5.58323;stroke-dasharray:none;stroke-opacity:1"><g
           id="g673"
           clip-path="url(#clipPath30257)"
           style="fill:#00936a;fill-opacity:1;stroke:#ffffff;stroke-width:5.58323;stroke-dasharray:none;stroke-opacity:1"><g
             id="g671"
             style="fill:#00936a;fill-opacity:1;stroke:#ffffff;stroke-width:5.58323;stroke-dasharray:none;stroke-opacity:1"><g
               id="g669"
               style="fill:#00936a;fill-opacity:1;stroke:#ffffff;stroke-width:5.58323;stroke-dasharray:none;stroke-opacity:1"><path
                 d="m 234.623,171.888 c 45.356,-20.891 29.349,34.354 59.678,37.484 v 0 c -0.427,0.01 -0.847,0.015 -1.27,0.015 v 0 c -37.433,-0.003 -58.408,-37.499 -58.408,-37.499"
                 style="fill:#00936a;fill-opacity:1;stroke:#ffffff;stroke-width:5.58323;stroke-dasharray:none;stroke-opacity:1"
                 id="path667" /></g></g></g></g><g
         id="g685"
         transform="matrix(1.3333333,0,0,-1.3333333,428.64995,809.87412)"
         style="fill:#00936a;fill-opacity:1;stroke:#ffffff;stroke-width:5.58323;stroke-dasharray:none;stroke-opacity:1"><g
           id="g683"
           clip-path="url(#clipPath30285)"
           style="fill:#00936a;fill-opacity:1;stroke:#ffffff;stroke-width:5.58323;stroke-dasharray:none;stroke-opacity:1"><g
             id="g681"
             style="fill:#00936a;fill-opacity:1;stroke:#ffffff;stroke-width:5.58323;stroke-dasharray:none;stroke-opacity:1"><g
               id="g679"
               style="fill:#00936a;fill-opacity:1;stroke:#ffffff;stroke-width:5.58323;stroke-dasharray:none;stroke-opacity:1"><path
                 d="m 248.296,190.801 c 0.223,3.626 -1.654,10.089 2.956,12.273 v 0 c -5.161,-2.152 -2.974,-9.347 -3.569,-12.844 v 0 c -2.983,-2.784 -5.417,-5.532 -7.352,-7.988 v 0 c 0.779,4.593 -2.535,14.277 4.065,17.409 v 0 c -8.656,-3.614 -2.715,-16.683 -5.768,-19.666 v 0 c -2.325,-3.221 -3.653,-5.674 -4.144,-6.636 v 0 c -1.128,-1.748 -2.308,-3.971 -3.595,-6.954 v 0 c 1.213,0.014 0.535,-0.425 1.399,-1.934 v 0 c 0,0 1.124,3.519 3.018,7.097 v 0 l 0.238,-0.115 c 0,0 0.885,1.934 2.798,4.932 v 0 c 1.944,0.603 4.909,0.225 8.175,-0.153 v 0 c 6.348,-0.735 13.834,-1.47 17.178,5.007 v 0 c -3.464,-5.998 -10.73,-5.098 -16.946,-4.198 v 0 c -2.931,0.424 -5.627,0.848 -7.582,0.551 v 0 c 1.254,1.667 1.138,1.49 2.056,2.956 v 0 c 1.691,2.267 3.785,4.799 6.312,7.403 v 0 c 5.002,2.002 17.343,-0.856 22.507,4.747 v 0 c -3.356,-3.165 -9.273,-3.155 -14.464,-3.145 v 0 c -2.595,0.004 -5.008,0.01 -6.828,-0.382 v 0 c 2.272,2.235 6.299,6.674 13.326,10.852 v 0 c 4.232,1.88 10.29,3.168 13.903,2.429 v 0 c -2.549,0.981 -7.682,0.147 -11.842,-1.367 v 0 c 7.469,4.152 16.98,7.398 27.887,8.735 v 0 c -20.449,-2.072 -34.565,-10.645 -43.728,-19.009"
                 style="fill:#00936a;fill-opacity:1;stroke:#ffffff;stroke-width:5.58323;stroke-dasharray:none;stroke-opacity:1"
                 id="path677" /></g></g></g></g><g
         id="g695"
         transform="matrix(1.3333333,0,0,-1.3333333,428.64995,809.87412)"
         style="fill:#00936a;fill-opacity:1;stroke:#ffffff;stroke-width:5.58323;stroke-dasharray:none;stroke-opacity:1"><g
           id="g693"
           clip-path="url(#clipPath30309)"
           style="fill:#00936a;fill-opacity:1;stroke:#ffffff;stroke-width:5.58323;stroke-dasharray:none;stroke-opacity:1"><g
             id="g691"
             style="fill:#00936a;fill-opacity:1;stroke:#ffffff;stroke-width:5.58323;stroke-dasharray:none;stroke-opacity:1"><g
               id="g689"
               style="fill:#00936a;fill-opacity:1;stroke:#ffffff;stroke-width:5.58323;stroke-dasharray:none;stroke-opacity:1"><path
                 d="m 260.119,177.725 c 1.408,0.749 2.633,1.871 3.576,3.504 v 0 c -1.005,-1.588 -2.222,-2.718 -3.576,-3.504 m -13.37,-0.694 c -2.598,0.376 -5.011,0.751 -6.887,0.625 v 0 c 1.616,0.083 3.819,-0.338 6.27,-0.76 v 0 c 4.518,-0.777 9.882,-1.554 13.987,0.829 v 0 c -3.766,-2.004 -8.846,-1.349 -13.37,-0.694 m -7.582,0.551 c 0.222,0.033 0.454,0.058 0.695,0.074 v 0 c -0.245,-0.012 -0.478,-0.037 -0.695,-0.074"
                 style="fill:#00936a;fill-opacity:1;stroke:#ffffff;stroke-width:5.58323;stroke-dasharray:none;stroke-opacity:1"
                 id="path687" /></g></g></g></g><g
         id="g705"
         transform="matrix(1.3333333,0,0,-1.3333333,428.64995,809.87412)"
         style="fill:#00936a;fill-opacity:1;stroke:#ffffff;stroke-width:5.58323;stroke-dasharray:none;stroke-opacity:1"><g
           id="g703"
           clip-path="url(#clipPath30329)"
           style="fill:#00936a;fill-opacity:1;stroke:#ffffff;stroke-width:5.58323;stroke-dasharray:none;stroke-opacity:1"><g
             id="g701"
             style="fill:#00936a;fill-opacity:1;stroke:#ffffff;stroke-width:5.58323;stroke-dasharray:none;stroke-opacity:1"><g
               id="g699"
               style="fill:#00936a;fill-opacity:1;stroke:#ffffff;stroke-width:5.58323;stroke-dasharray:none;stroke-opacity:1"><path
                 d="m 240.238,181.843 c 1.817,6.046 -2.645,13.632 4.158,17.808 v 0 c -6.641,-3.979 -3.226,-9.117 -4.158,-17.808"
                 style="fill:#00936a;fill-opacity:1;stroke:#ffffff;stroke-width:5.58323;stroke-dasharray:none;stroke-opacity:1"
                 id="path697" /></g></g></g></g><g
         id="g715"
         transform="matrix(1.3333333,0,0,-1.3333333,428.64995,809.87412)"
         style="fill:#00936a;fill-opacity:1;stroke:#ffffff;stroke-width:5.58323;stroke-dasharray:none;stroke-opacity:1"><g
           id="g713"
           clip-path="url(#clipPath30349)"
           style="fill:#00936a;fill-opacity:1;stroke:#ffffff;stroke-width:5.58323;stroke-dasharray:none;stroke-opacity:1"><g
             id="g711"
             style="fill:#00936a;fill-opacity:1;stroke:#ffffff;stroke-width:5.58323;stroke-dasharray:none;stroke-opacity:1"><g
               id="g709"
               style="fill:#00936a;fill-opacity:1;stroke:#ffffff;stroke-width:5.58323;stroke-dasharray:none;stroke-opacity:1"><path
                 d="m 247.95,190.545 0.346,0.256 c 1.139,4.66 -2.142,8.021 2.607,12.018 v 0 c -5.072,-2.934 -1.678,-9.389 -2.953,-12.274"
                 style="fill:#00936a;fill-opacity:1;stroke:#ffffff;stroke-width:5.58323;stroke-dasharray:none;stroke-opacity:1"
                 id="path707" /></g></g></g></g><g
         id="g725"
         transform="matrix(1.3333333,0,0,-1.3333333,428.64995,809.87412)"
         style="fill:#00936a;fill-opacity:1;stroke:#ffffff;stroke-width:5.58323;stroke-dasharray:none;stroke-opacity:1"><g
           id="g723"
           clip-path="url(#clipPath30369)"
           style="fill:#00936a;fill-opacity:1;stroke:#ffffff;stroke-width:5.58323;stroke-dasharray:none;stroke-opacity:1"><g
             id="g721"
             style="fill:#00936a;fill-opacity:1;stroke:#ffffff;stroke-width:5.58323;stroke-dasharray:none;stroke-opacity:1"><g
               id="g719"
               style="fill:#00936a;fill-opacity:1;stroke:#ffffff;stroke-width:5.58323;stroke-dasharray:none;stroke-opacity:1"><path
                 d="m 249.909,189.293 c 1.35,0.104 2.956,0.1 4.681,0.096 v 0 c 5.404,-0.015 11.967,-0.029 15.452,3.299 v 0 c -4.303,-3.951 -13.897,-2.831 -20.133,-3.395 m -1.369,-0.162 c 0.434,0.066 0.892,0.119 1.369,0.162 v 0 c -0.493,-0.037 -0.951,-0.09 -1.369,-0.162"
                 style="fill:#00936a;fill-opacity:1;stroke:#ffffff;stroke-width:5.58323;stroke-dasharray:none;stroke-opacity:1"
                 id="path717" /></g></g></g></g><g
         id="g735"
         transform="matrix(1.3333333,0,0,-1.3333333,428.64995,809.87412)"
         style="fill:#00936a;fill-opacity:1;stroke:#ffffff;stroke-width:5.58323;stroke-dasharray:none;stroke-opacity:1"><g
           id="g733"
           clip-path="url(#clipPath30389)"
           style="fill:#00936a;fill-opacity:1;stroke:#ffffff;stroke-width:5.58323;stroke-dasharray:none;stroke-opacity:1"><g
             id="g731"
             style="fill:#00936a;fill-opacity:1;stroke:#ffffff;stroke-width:5.58323;stroke-dasharray:none;stroke-opacity:1"><g
               id="g729"
               style="fill:#00936a;fill-opacity:1;stroke:#ffffff;stroke-width:5.58323;stroke-dasharray:none;stroke-opacity:1"><path
                 d="m 252.461,169.245 c 18.866,1.607 14.204,24.475 30.937,36.607 v 0 C 266.07,194.481 272.144,173.119 252.461,169.245"
                 style="fill:#00936a;fill-opacity:1;stroke:#ffffff;stroke-width:5.58323;stroke-dasharray:none;stroke-opacity:1"
                 id="path727" /></g></g></g></g><g
         id="g745"
         transform="matrix(1.3333333,0,0,-1.3333333,428.64995,809.87412)"
         style="fill:#00936a;fill-opacity:1;stroke:#ffffff;stroke-width:5.58323;stroke-dasharray:none;stroke-opacity:1"><g
           id="g743"
           clip-path="url(#clipPath30411)"
           style="fill:#00936a;fill-opacity:1;stroke:#ffffff;stroke-width:5.58323;stroke-dasharray:none;stroke-opacity:1"><g
             id="g741"
             style="fill:#00936a;fill-opacity:1;stroke:#ffffff;stroke-width:5.58323;stroke-dasharray:none;stroke-opacity:1"><g
               id="g739"
               style="fill:#00936a;fill-opacity:1;stroke:#ffffff;stroke-width:5.58323;stroke-dasharray:none;stroke-opacity:1"><path
                 d="m 235.215,174.497 c 0,0 -5.869,11.804 3.169,24.982 v 0 c -10.433,-11.837 -3.169,-24.982 -3.169,-24.982"
                 style="fill:#00936a;fill-opacity:1;stroke:#ffffff;stroke-width:5.58323;stroke-dasharray:none;stroke-opacity:1"
                 id="path737" /></g></g></g></g><g
         id="g753"
         transform="matrix(1.3333333,0,0,-1.3333333,428.64995,809.87412)"
         style="fill:#00936a;fill-opacity:1;stroke:#ffffff;stroke-width:5.58323;stroke-dasharray:none;stroke-opacity:1"><g
           id="g751"
           clip-path="url(#clipPath30433)"
           style="fill:#00936a;fill-opacity:1;stroke:#ffffff;stroke-width:5.58323;stroke-dasharray:none;stroke-opacity:1"><g
             id="g749"
             transform="translate(245.1475,183.001)"
             style="fill:#00936a;fill-opacity:1;stroke:#ffffff;stroke-width:5.58323;stroke-dasharray:none;stroke-opacity:1"><path
               d="m 0,0 c -0.877,-1.103 -0.693,-2.705 0.407,-3.58 1.1,-0.875 2.703,-0.694 3.577,0.408 0.878,1.1 0.694,2.703 -0.406,3.578 C 2.475,1.279 0.875,1.101 0,0"
               style="fill:#00936a;fill-opacity:1;fill-rule:nonzero;stroke:#ffffff;stroke-width:5.58323;stroke-dasharray:none;stroke-opacity:1"
               id="path747" /></g></g></g><g
         id="g763"
         transform="matrix(1.3333333,0,0,-1.3333333,428.64995,809.87412)"
         style="fill:#00936a;fill-opacity:1;stroke:#ffffff;stroke-width:5.58323;stroke-dasharray:none;stroke-opacity:1"><g
           id="g761"
           clip-path="url(#clipPath30445)"
           style="fill:#00936a;fill-opacity:1;stroke:#ffffff;stroke-width:5.58323;stroke-dasharray:none;stroke-opacity:1"><g
             id="g759"
             style="fill:#00936a;fill-opacity:1;stroke:#ffffff;stroke-width:5.58323;stroke-dasharray:none;stroke-opacity:1"><g
               id="g757"
               style="fill:#00936a;fill-opacity:1;stroke:#ffffff;stroke-width:5.58323;stroke-dasharray:none;stroke-opacity:1"><path
                 d="m 245.363,183.084 c -0.826,-1.037 -0.654,-2.549 0.386,-3.379 v 0 c 1.039,-0.829 2.553,-0.657 3.38,0.383 v 0 c 0.827,1.041 0.656,2.553 -0.387,3.381 v 0 c -0.442,0.352 -0.97,0.523 -1.495,0.523 v 0 c -0.707,0 -1.409,-0.311 -1.884,-0.908"
                 style="fill:#00936a;fill-opacity:1;stroke:#ffffff;stroke-width:5.58323;stroke-dasharray:none;stroke-opacity:1"
                 id="path755" /></g></g></g></g><g
         id="g773"
         transform="matrix(1.3333333,0,0,-1.3333333,428.64995,809.87412)"
         style="fill:#00936a;fill-opacity:1;stroke:#ffffff;stroke-width:5.58323;stroke-dasharray:none;stroke-opacity:1"><g
           id="g771"
           clip-path="url(#clipPath30467)"
           style="fill:#00936a;fill-opacity:1;stroke:#ffffff;stroke-width:5.58323;stroke-dasharray:none;stroke-opacity:1"><g
             id="g769"
             style="fill:#00936a;fill-opacity:1;stroke:#ffffff;stroke-width:5.58323;stroke-dasharray:none;stroke-opacity:1"><g
               id="g767"
               style="fill:#00936a;fill-opacity:1;stroke:#ffffff;stroke-width:5.58323;stroke-dasharray:none;stroke-opacity:1"><path
                 d="m 247.241,183.307 c -0.092,-0.21 0.096,-0.497 0.421,-0.638 v 0 c 0.323,-0.138 0.66,-0.079 0.75,0.13 v 0 c 0.092,0.213 -0.096,0.499 -0.421,0.636 v 0 c -0.118,0.051 -0.239,0.076 -0.348,0.076 v 0 c -0.188,0 -0.344,-0.072 -0.402,-0.204"
                 style="fill:#00936a;fill-opacity:1;stroke:#ffffff;stroke-width:5.58323;stroke-dasharray:none;stroke-opacity:1"
                 id="path765" /></g></g></g></g><g
         id="g781"
         transform="matrix(1.3333333,0,0,-1.3333333,428.64995,809.87412)"
         style="fill:#00936a;fill-opacity:1;stroke:#ffffff;stroke-width:5.58323;stroke-dasharray:none;stroke-opacity:1"><g
           id="g779"
           clip-path="url(#clipPath30487)"
           style="fill:#00936a;fill-opacity:1;stroke:#ffffff;stroke-width:5.58323;stroke-dasharray:none;stroke-opacity:1"><g
             id="g777"
             transform="translate(259.3232,206.1836)"
             style="fill:#00936a;fill-opacity:1;stroke:#ffffff;stroke-width:5.58323;stroke-dasharray:none;stroke-opacity:1"><path
               d="M 0,0 C -0.578,-0.725 -0.454,-1.778 0.267,-2.354 0.992,-2.932 2.047,-2.812 2.625,-2.087 3.199,-1.361 3.08,-0.308 2.355,0.27 1.63,0.845 0.577,0.726 0,0"
               style="fill:#00936a;fill-opacity:1;fill-rule:nonzero;stroke:#ffffff;stroke-width:5.58323;stroke-dasharray:none;stroke-opacity:1"
               id="path775" /></g></g></g><g
         id="g791"
         transform="matrix(1.3333333,0,0,-1.3333333,428.64995,809.87412)"
         style="fill:#00936a;fill-opacity:1;stroke:#ffffff;stroke-width:5.58323;stroke-dasharray:none;stroke-opacity:1"><g
           id="g789"
           clip-path="url(#clipPath30499)"
           style="fill:#00936a;fill-opacity:1;stroke:#ffffff;stroke-width:5.58323;stroke-dasharray:none;stroke-opacity:1"><g
             id="g787"
             style="fill:#00936a;fill-opacity:1;stroke:#ffffff;stroke-width:5.58323;stroke-dasharray:none;stroke-opacity:1"><g
               id="g785"
               style="fill:#00936a;fill-opacity:1;stroke:#ffffff;stroke-width:5.58323;stroke-dasharray:none;stroke-opacity:1"><path
                 d="m 259.467,206.24 c -0.543,-0.685 -0.429,-1.681 0.253,-2.224 v 0 c 0.685,-0.544 1.681,-0.43 2.227,0.252 v 0 c 0.543,0.684 0.428,1.68 -0.256,2.227 v 0 c -0.291,0.231 -0.638,0.343 -0.984,0.343 v 0 c -0.465,0 -0.927,-0.204 -1.24,-0.598"
                 style="fill:#00936a;fill-opacity:1;stroke:#ffffff;stroke-width:5.58323;stroke-dasharray:none;stroke-opacity:1"
                 id="path783" /></g></g></g></g><g
         id="g801"
         transform="matrix(1.3333333,0,0,-1.3333333,428.64995,809.87412)"
         style="fill:#00936a;fill-opacity:1;stroke:#ffffff;stroke-width:5.58323;stroke-dasharray:none;stroke-opacity:1"><g
           id="g799"
           clip-path="url(#clipPath30521)"
           style="fill:#00936a;fill-opacity:1;stroke:#ffffff;stroke-width:5.58323;stroke-dasharray:none;stroke-opacity:1"><g
             id="g797"
             style="fill:#00936a;fill-opacity:1;stroke:#ffffff;stroke-width:5.58323;stroke-dasharray:none;stroke-opacity:1"><g
               id="g795"
               style="fill:#00936a;fill-opacity:1;stroke:#ffffff;stroke-width:5.58323;stroke-dasharray:none;stroke-opacity:1"><path
                 d="m 260.703,206.387 c -0.06,-0.14 0.064,-0.328 0.275,-0.42 v 0 c 0.215,-0.091 0.438,-0.054 0.496,0.083 v 0 c 0.059,0.143 -0.065,0.331 -0.276,0.423 v 0 c -0.079,0.033 -0.159,0.048 -0.231,0.048 v 0 c -0.124,0 -0.225,-0.046 -0.264,-0.134"
                 style="fill:#00936a;fill-opacity:1;stroke:#ffffff;stroke-width:5.58323;stroke-dasharray:none;stroke-opacity:1"
                 id="path793" /></g></g></g></g></g></g></svg>
