<svg width="456" height="456" xmlns:xlink="http://www.w3.org/1999/xlink" xmlns="http://www.w3.org/2000/svg"><defs><radialGradient xlink:href="#prefix__a" id="prefix__b" cx="-312.954" cy="296" fx="-312.954" fy="296" r="256" gradientTransform="rotate(45 7.997 248.673) scale(.26517)" gradientUnits="userSpaceOnUse"/><linearGradient id="prefix__a"><stop offset="0" stop-color="#fff" stop-opacity=".99"/><stop offset="1" stop-color="#f4684d"/></linearGradient><filter id="prefix__c" x="-.035" y="-.027" width="1.071" height="1.054" color-interpolation-filters="sRGB"><feGaussianBlur stdDeviation="1.095"/></filter></defs><path d="M110.188 64A46.188 46.188 0 0164 110.19 46.188 46.188 0 0117.811 64 46.188 46.188 0 0164 17.813 46.188 46.188 0 01110.188 64z" fill="url(#prefix__b)" stroke="#fff" stroke-width="3.626" stroke-linecap="round" stroke-linejoin="round" paint-order="markers fill stroke" transform="translate(48.007 48.001) scale(2.81241)"/><g transform="matrix(2.1093 0 0 2.1093 96.861 86.183)" fill="maroon" filter="url(#prefix__c)"><path d="M50.097 90.553c0-2.81 9.48-14.515 12.52-15.46 2.616-.813 1.632-32.849-1.065-34.674-9.665-6.54-17.735-21.623-11.57-21.623 5.342 0 12.87 11.44 14.19 21.564.836 6.416.836 6.416 2.474 3.175 2.05-4.058 6.72-8.942 10.199-10.668 7.776-3.857.62 13.337-8.136 19.548-4.429 3.142-5.642 21.444-1.558 23.512 3.153 1.596 11.531 12.577 11.531 15.114 0 .291-6.431.53-14.292.53-11.026 0-14.293-.233-14.293-1.018z"/><path d="M53.45 113.66c-3.26-3.664-.285-9.366-3.596-13.01-5.72-17.398-8.582-35.587-14.15-53.024-1.526-4.373-7.218-5.859-11.039-3.75-2.21 2.547-8.357 3.184-7.142-1.606 2.809-2.845 7.564-1.555 11.214-1.987 3.46-.02 7.622.562 9.242 4.082 2.087 3.97 2.75 8.502 3.65 12.829 1.191 5.195 7.025 2.481 10.706 3.126 12.764.102 25.536.038 38.287.696 3.2 4.186-2.14 8.835-2.525 13.268-2.323 6.353-4.808 12.644-7.172 18.98l-30.119.428c.6 3.67 1.652 8.771 6.09 9.344 6.389-.145 12.832.22 19.247.04 3.885-.747 7.978.343 8.242 4.862 1.295 4.668-3.743 9.276-8.236 7.227-4.16-.936-3.542-5.13-4.038-8.081-2.169-1.75-5.089-.528-7.634-.838-1.31 1.178.576 6.663-2.753 8.23-2.409 1.811-6.24 1.376-8.274-.816zm6.787-2.263c3.978-4.759-7.574-6.882-5.178-.873.712 2.021 3.927 2.862 5.178.873zm20.455 0c3.978-4.759-7.574-6.882-5.178-.873.712 2.021 3.927 2.862 5.178.873zm2.922-34.26c1.661-4.39 3.353-8.768 4.96-13.178-14.583-.236-29.18-.443-43.753.26-1.983 4.665 2.043 9.083 2.087 13.775 1.036 4.192 2.1 8.377 3.203 12.552l28.56-.428z"/></g><path d="M202.532 277.188c0-5.926 19.996-30.616 26.409-32.61 5.518-1.716 3.442-69.29-2.247-73.14-20.385-13.795-37.411-45.609-24.404-45.609 11.267 0 27.146 24.13 29.93 45.485 1.763 13.534 1.763 13.534 5.22 6.697 4.323-8.558 14.174-18.86 21.51-22.5 16.404-8.136 1.31 28.13-17.157 41.23-9.345 6.63-11.904 45.235-3.29 49.597 6.651 3.367 24.327 26.527 24.327 31.879 0 .613-13.57 1.12-30.149 1.12-23.258 0-30.149-.493-30.149-2.15z" fill="#3ebe6f"/><path d="M209.603 325.93c-6.877-7.729-.602-19.758-7.585-27.444-12.066-36.7-18.101-75.063-29.846-111.844-3.22-9.225-15.226-12.358-23.287-7.911-4.66 5.371-17.628 6.716-15.063-3.386 5.926-6.002 15.955-3.282 23.653-4.19 7.298-.046 16.078 1.183 19.498 8.608 4.401 8.375 5.8 17.935 7.698 27.06 2.511 10.958 14.821 5.232 22.583 6.593 26.92.217 53.86.085 80.756 1.468 6.752 8.831-4.514 18.638-5.324 27.987-4.9 13.4-10.142 26.67-15.13 40.034l-63.528.903c1.266 7.743 3.488 18.506 12.845 19.715 13.474-.31 27.066.461 40.597.084 8.195-1.574 16.83.723 17.386 10.252 2.734 9.846-7.897 19.566-17.375 15.243-8.775-1.974-7.467-10.82-8.516-17.043-4.573-3.693-10.732-1.114-16.1-1.77-2.763 2.487 1.214 14.054-5.809 17.362-5.079 3.819-13.162 2.902-17.453-1.721zm14.315-4.776c8.395-10.037-15.975-14.512-10.918-1.84 1.502 4.262 8.283 6.036 10.918 1.84zm43.148 0c8.392-10.037-15.975-14.512-10.92-1.84 1.501 4.262 8.282 6.036 10.92 1.84zm6.162-72.265c3.501-9.258 7.07-18.494 10.462-27.795-30.76-.498-61.55-.936-92.292.549-4.18 9.837 4.311 19.158 4.404 29.052a1706.915 1706.915 0 006.756 26.479l60.241-.9z" fill="#e1e100"/></svg>
